<svg width="41" height="46" viewBox="0 0 41 46" fill="none" xmlns="http://www.w3.org/2000/svg">
<path d="M2.59328 0.770096C0.71611 1.70742 0.468482 2.94482 1.79146 4.67148C2.36854 5.47393 8.68183 10.2081 15.7922 15.2597C22.9457 20.394 29.259 25.1281 29.8989 25.9501C31.112 27.3658 31.0924 27.4289 29.4311 28.7794C28.4885 29.5927 22.8531 32.1959 16.8604 34.6186C10.3925 37.2393 5.75065 39.5293 5.22431 40.3339C3.68846 42.8305 3.98272 44.0983 6.24828 45.0116C8.03089 45.7053 9.73513 45.5444 15.1426 44.1155C24.0921 41.7145 32.0051 38.4371 35.5555 35.6686C38.0179 33.7375 38.6464 32.8263 39.5894 29.7991C40.5914 26.5827 40.5797 25.9564 39.2608 23.3316C37.098 18.991 34.4361 16.9164 21.2201 9.34012C5.54235 0.374247 4.34481 -0.206368 2.59328 0.770096Z" fill="#212121"/>
</svg>
