<svg width="40" height="46" viewBox="0 0 40 46" fill="none" xmlns="http://www.w3.org/2000/svg">
<path d="M38.2138 0.770096C40.091 1.70742 40.3386 2.94482 39.0157 4.67148C38.4386 5.47393 32.1253 10.2081 25.0149 15.2597C17.8614 20.394 11.5481 25.1281 10.9082 25.9501C9.69512 27.3658 9.71476 27.4289 11.376 28.7794C12.3186 29.5927 17.954 32.1959 23.9467 34.6186C30.4146 37.2393 35.0565 39.5293 35.5828 40.3339C37.1187 42.8305 36.8244 44.0983 34.5589 45.0116C32.7762 45.7053 31.072 45.5444 25.6646 44.1155C16.715 41.7145 8.80199 38.4371 5.25165 35.6686C2.7892 33.7375 2.16074 32.8263 1.21773 29.7991C0.215776 26.5827 0.227435 25.9564 1.54631 23.3316C3.7091 18.991 6.37103 16.9164 19.587 9.34012C35.2648 0.374247 36.4623 -0.206368 38.2138 0.770096Z" fill="#212121"/>
</svg>
