<svg width="87" height="24" viewBox="0 0 87 24" fill="none" xmlns="http://www.w3.org/2000/svg">
<path d="M75.8995 23.4958C72.3104 23.4958 69.8683 21.7937 69.8683 18.8336C69.8683 15.8365 72.3474 14.5414 75.7515 14.1714L84.4469 13.2094V11.8033C84.4469 8.2512 82.8928 6.84514 78.8966 6.84514C74.9745 6.84514 72.9024 8.2512 72.9024 11.4703L72.8929 11.6553H70.2658L70.2753 11.4703C70.2753 7.62217 73.4574 4.47705 79.0817 4.47705C84.6319 4.47705 87 7.65918 87 11.6923V23.1258H84.6319V18.2046H84.4469C83.3738 21.5717 80.1547 23.4958 75.8995 23.4958ZM72.4954 18.6486C72.4954 20.4987 73.7164 21.4607 76.4915 21.4607C80.9317 21.4607 84.4469 19.4996 84.4469 15.0965V14.9485L76.5656 15.8365C73.8274 16.0955 72.4954 16.7615 72.4954 18.6486Z" fill="#212121"/>
<path d="M55.3542 23.1258H52.7271V4.84707H55.0951V9.84226H55.2801C55.8352 6.91915 57.9073 4.47705 61.7184 4.47705C65.9366 4.47705 67.7866 7.58517 67.7866 10.9893V11.6553H65.1595V11.3963C65.1595 8.2882 63.8645 6.77114 60.6824 6.77114C56.9822 6.77114 55.3542 9.10223 55.3542 13.2094V23.1258Z" fill="#212121"/>
<path d="M39.2782 23.4958C33.321 23.4958 29.3618 19.5366 29.3618 13.9864C29.3618 8.4362 33.321 4.47705 39.2782 4.47705C45.2724 4.47705 49.2316 8.4362 49.2316 13.9864C49.2316 19.5366 45.2724 23.4958 39.2782 23.4958ZM39.2782 21.1277C44.3104 21.1277 46.6415 18.4266 46.6415 13.9864C46.6415 9.58325 44.3104 6.84514 39.2782 6.84514C34.246 6.84514 31.9519 9.58325 31.9519 13.9864C31.9519 18.4266 34.246 21.1277 39.2782 21.1277Z" fill="#212121"/>
<path d="M25.9048 2.5161H23.2777V0H25.9048V2.5161ZM25.9048 23.1259H23.2777V4.84719H25.9048V23.1259Z" fill="#212121"/>
<path d="M11.9515 23.1259H8.73234L0 4.84717H2.84911L10.2494 20.5358H10.4714L17.8347 4.84717H20.6838L11.9515 23.1259Z" fill="#212121"/>
</svg>
